<svg width="215" height="21" viewBox="0 0 215 21" fill="none" xmlns="http://www.w3.org/2000/svg">
<path fill-rule="evenodd" clip-rule="evenodd" d="M12.2252 8.86314C12.8689 8.21947 12.8689 7.17589 12.2252 6.53222C11.5816 5.88856 10.538 5.88856 9.89434 6.53222L4.78219 11.6444C4.56793 11.8586 4.56793 12.206 4.78219 12.4203C4.99646 12.6346 5.34385 12.6346 5.55811 12.4203L10.6703 7.30814C10.8854 7.09301 11.2342 7.09301 11.4493 7.30814C11.6645 7.52328 11.6645 7.87208 11.4493 8.08722L11.1477 8.38886C10.9334 8.60312 10.9334 8.95051 11.1477 9.16478C11.362 9.37904 11.7093 9.37904 11.9236 9.16478L12.2252 8.86314Z" fill="#FF5B49"/>
<path fill-rule="evenodd" clip-rule="evenodd" d="M4.49331 8.86312C3.84964 8.21946 3.84964 7.17587 4.49331 6.53221C5.13697 5.88854 6.18055 5.88854 6.82421 6.53221L11.9364 11.6444C12.1506 11.8586 12.1506 12.206 11.9364 12.4203C11.7221 12.6346 11.3747 12.6346 11.1604 12.4203L6.0483 7.30813C5.83316 7.09299 5.48436 7.09299 5.26922 7.30813C5.05409 7.52326 5.05409 7.87207 5.26922 8.0872L5.62576 8.44374C5.84003 8.65801 5.84003 9.0054 5.62576 9.21966C5.4115 9.43393 5.06411 9.43393 4.84985 9.21966L4.49331 8.86312Z" fill="#FF5B49"/>
<path fill-rule="evenodd" clip-rule="evenodd" d="M7.82685 17.0408V0.829547H8.92417V17.0408H7.82685Z" fill="#FF5B49"/>
<path fill-rule="evenodd" clip-rule="evenodd" d="M0.269982 8.38688L16.4812 8.38688V9.48419L0.269982 9.48419L0.269982 8.38688Z" fill="#FF5B49"/>
<path fill-rule="evenodd" clip-rule="evenodd" d="M12.7518 2.33835H3.97342C2.76136 2.33835 1.77879 3.32091 1.77879 4.53297V13.3114C1.77879 14.5235 2.76136 15.5061 3.97342 15.5061H12.7518C13.9639 15.5061 14.9464 14.5235 14.9464 13.3114V4.53297C14.9464 3.32091 13.9639 2.33835 12.7518 2.33835ZM3.97342 0.692383C1.85231 0.692383 0.132812 2.41187 0.132812 4.53297V13.3114C0.132812 15.4325 1.85231 17.152 3.97342 17.152H12.7518C14.8729 17.152 16.5924 15.4325 16.5924 13.3114V4.53297C16.5924 2.41187 14.8729 0.692383 12.7518 0.692383H3.97342Z" fill="#FF5B49"/>
<path d="M30.2003 4.2637C30.6535 4.59741 30.91 5.0656 30.9698 5.66827H34.0703C34.0554 4.75679 33.8113 3.95489 33.3382 3.26257C32.865 2.57025 32.2026 2.02984 31.3508 1.64134C30.5041 1.25284 29.5129 1.05859 28.3773 1.05859C27.2616 1.05859 26.2655 1.25284 25.3889 1.64134C24.5122 2.02984 23.8224 2.57025 23.3194 3.26257C22.8213 3.95489 22.5747 4.76426 22.5797 5.69068C22.5747 6.82131 22.9458 7.72033 23.6929 8.38775C24.44 9.05517 25.4586 9.54577 26.7486 9.85956L28.4147 10.2779C28.9725 10.4124 29.4432 10.5618 29.8267 10.7262C30.2152 10.8906 30.5091 11.0898 30.7083 11.3239C30.9125 11.558 31.0146 11.8469 31.0146 12.1905C31.0146 12.5591 30.9026 12.8854 30.6784 13.1693C30.4543 13.4532 30.138 13.6748 29.7296 13.8342C29.3262 13.9936 28.8505 14.0733 28.3026 14.0733C27.7448 14.0733 27.2442 13.9886 26.8009 13.8192C26.3626 13.6449 26.0115 13.3884 25.7475 13.0497C25.4885 12.7061 25.3415 12.2777 25.3067 11.7647H22.1763C22.2012 12.8654 22.4676 13.7894 22.9757 14.5365C23.4887 15.2786 24.201 15.8389 25.1124 16.2175C26.0289 16.596 27.1047 16.7853 28.34 16.7853C29.5852 16.7853 30.6486 16.5985 31.5301 16.2249C32.4167 15.8464 33.0941 15.316 33.5623 14.6336C34.0355 13.9463 34.2746 13.1344 34.2795 12.198C34.2746 11.5605 34.1575 10.9952 33.9284 10.5021C33.7043 10.009 33.388 9.58064 32.9796 9.21704C32.5711 8.85345 32.088 8.54714 31.5301 8.2981C30.9723 8.04906 30.3597 7.84983 29.6922 7.70041L28.3176 7.37168C27.9838 7.29697 27.6701 7.20732 27.3762 7.10272C27.0823 6.99314 26.8233 6.86614 26.5992 6.72169C26.3751 6.57227 26.1982 6.39546 26.0687 6.19125C25.9442 5.98704 25.8869 5.74796 25.8969 5.47402C25.8969 5.14529 25.9915 4.85143 26.1808 4.59243C26.3751 4.33343 26.654 4.13171 27.0176 3.98727C27.3812 3.83785 27.8269 3.76313 28.3549 3.76313C29.1319 3.76313 29.747 3.92999 30.2003 4.2637Z" fill="currentColor"/>
<path d="M49.3881 1.26778H46.1531V10.9279C46.1531 11.5107 46.0236 12.0287 45.7646 12.4819C45.5105 12.9352 45.1494 13.2913 44.6812 13.5503C44.218 13.8093 43.6726 13.9388 43.0451 13.9388C42.4225 13.9388 41.8771 13.8093 41.4089 13.5503C40.9407 13.2913 40.5771 12.9352 40.3181 12.4819C40.0641 12.0287 39.9371 11.5107 39.9371 10.9279V1.26778H36.7021V11.2044C36.7021 12.32 36.966 13.2963 37.494 14.133C38.022 14.9698 38.7616 15.6223 39.7129 16.0905C40.6642 16.5537 41.775 16.7853 43.0451 16.7853C44.3102 16.7853 45.4184 16.5537 46.3697 16.0905C47.321 15.6223 48.0607 14.9698 48.5886 14.133C49.1216 13.2963 49.3881 12.32 49.3881 11.2044V1.26778Z" fill="currentColor"/>
<path fill-rule="evenodd" clip-rule="evenodd" d="M52.2962 16.5686V1.26778H58.3329C59.4884 1.26778 60.4746 1.47449 61.2915 1.88789C62.1133 2.29631 62.7384 2.87656 63.1667 3.62866C63.6001 4.37577 63.8167 5.25487 63.8167 6.26596C63.8167 7.28203 63.5976 8.15615 63.1593 8.88831C62.7209 9.6155 62.0859 10.1733 61.2541 10.5618C61.2085 10.5833 61.1624 10.6041 61.1157 10.6244L64.3621 16.5686H60.7909L57.8926 11.1446H55.5312V16.5686H52.2962ZM57.7277 8.54464H55.5312V3.91256H57.7128C58.3354 3.91256 58.8509 4.0047 59.2593 4.18899C59.6727 4.36829 59.979 4.63227 60.1783 4.98093C60.3825 5.32958 60.4846 5.75792 60.4846 6.26596C60.4846 6.76901 60.3825 7.18988 60.1783 7.52857C59.979 7.86726 59.6752 8.12128 59.2668 8.29063C58.8584 8.45997 58.3453 8.54464 57.7277 8.54464Z" fill="currentColor"/>
<path d="M66.3494 1.26778V16.5686H69.5844V10.2481H75.8079V7.58087H69.5844V3.93497H76.4803V1.26778H66.3494Z" fill="currentColor"/>
<path d="M78.9028 16.5686V1.26778H89.213V3.93497H82.1378V7.58087H88.6826V10.2481H82.1378V13.9014H89.2429V16.5686H78.9028Z" fill="currentColor"/>
<path fill-rule="evenodd" clip-rule="evenodd" d="M92.0315 1.26778V16.5686H95.2665V11.1446H97.6279L100.526 16.5686H104.097L100.851 10.6244C100.898 10.6041 100.944 10.5833 100.989 10.5618C101.821 10.1733 102.456 9.6155 102.895 8.88831C103.333 8.15615 103.552 7.28203 103.552 6.26596C103.552 5.25487 103.335 4.37577 102.902 3.62866C102.474 2.87656 101.849 2.29631 101.027 1.88789C100.21 1.47449 99.2237 1.26778 98.0682 1.26778H92.0315ZM95.2665 8.54464H97.463C98.0806 8.54464 98.5937 8.45997 99.0021 8.29063C99.4105 8.12128 99.7143 7.86726 99.9136 7.52857C100.118 7.18988 100.22 6.76901 100.22 6.26596C100.22 5.75792 100.118 5.32958 99.9136 4.98093C99.7143 4.63227 99.408 4.36829 98.9946 4.18899C98.5862 4.0047 98.0707 3.91256 97.4481 3.91256H95.2665V8.54464Z" fill="currentColor"/>
<path d="M119.69 1.41211H122.003V11.4642C122.003 12.5339 121.752 13.4816 121.25 14.3075C120.747 15.1284 120.041 15.7751 119.13 16.2478C118.22 16.7154 117.153 16.9492 115.929 16.9492C114.71 16.9492 113.645 16.7154 112.735 16.2478C111.824 15.7751 111.118 15.1284 110.616 14.3075C110.113 13.4816 109.862 12.5339 109.862 11.4642V1.41211H112.168V11.2777C112.168 11.9692 112.319 12.5836 112.623 13.1209C112.931 13.6582 113.367 14.0811 113.929 14.3896C114.491 14.693 115.158 14.8448 115.929 14.8448C116.705 14.8448 117.374 14.693 117.936 14.3896C118.504 14.0811 118.936 13.6582 119.235 13.1209C119.538 12.5836 119.69 11.9692 119.69 11.2777V1.41211Z" fill="url(#paint0_linear_1113_15881)"/>
<path d="M126.358 9.88962V16.6955H124.126V5.23296H126.268V7.09861H126.41C126.673 6.49165 127.086 6.00409 127.649 5.63594C128.216 5.26778 128.93 5.08371 129.79 5.08371C130.571 5.08371 131.255 5.24788 131.843 5.57624C132.43 5.89962 132.885 6.3822 133.208 7.02398C133.532 7.66577 133.693 8.45929 133.693 9.40455V16.6955H131.462V9.67321C131.462 8.84237 131.246 8.19312 130.813 7.72547C130.38 7.25284 129.785 7.01652 129.029 7.01652C128.512 7.01652 128.052 7.12846 127.649 7.35234C127.251 7.57621 126.935 7.90457 126.701 8.3374C126.472 8.76526 126.358 9.28266 126.358 9.88962Z" fill="url(#paint1_linear_1113_15881)"/>
<path d="M138.12 16.6955L134.747 5.23296H137.053L139.299 13.6508H139.411L141.665 5.23296H143.971L146.21 13.6135H146.321L148.553 5.23296H150.859L147.493 16.6955H145.217L142.889 8.41949H142.717L140.389 16.6955H138.12Z" fill="url(#paint2_linear_1113_15881)"/>
<path d="M151.925 16.6955V5.23296H154.082V7.05383H154.202C154.411 6.43692 154.779 5.95186 155.306 5.59863C155.838 5.24042 156.44 5.06132 157.112 5.06132C157.251 5.06132 157.415 5.06629 157.605 5.07625C157.799 5.08619 157.95 5.09863 158.06 5.11356V7.24786C157.97 7.22299 157.811 7.19562 157.582 7.16577C157.353 7.13095 157.124 7.11353 156.896 7.11353C156.368 7.11353 155.898 7.22547 155.485 7.44935C155.077 7.66825 154.754 7.97422 154.515 8.36725C154.276 8.75531 154.157 9.19809 154.157 9.69559V16.6955H151.925Z" fill="url(#paint3_linear_1113_15881)"/>
<path d="M162.173 16.9492C161.447 16.9492 160.79 16.8149 160.203 16.5463C159.616 16.2726 159.151 15.8771 158.808 15.3597C158.469 14.8423 158.3 14.208 158.3 13.4567C158.3 12.81 158.424 12.2777 158.673 11.8597C158.922 11.4418 159.258 11.111 159.681 10.8672C160.104 10.6234 160.576 10.4394 161.099 10.315C161.621 10.1906 162.153 10.0961 162.696 10.0314C163.382 9.95181 163.939 9.88713 164.367 9.83738C164.795 9.78266 165.106 9.69559 165.3 9.57619C165.494 9.45679 165.591 9.26276 165.591 8.99411V8.94187C165.591 8.29014 165.407 7.78517 165.039 7.42696C164.676 7.06876 164.133 6.88966 163.412 6.88966C162.661 6.88966 162.069 7.05632 161.636 7.38965C161.208 7.718 160.912 8.08367 160.748 8.48665L158.651 8.00905C158.9 7.31254 159.263 6.75035 159.74 6.3225C160.223 5.88967 160.778 5.57624 161.404 5.38221C162.031 5.18321 162.691 5.08371 163.382 5.08371C163.84 5.08371 164.325 5.13843 164.837 5.24789C165.355 5.35236 165.837 5.54639 166.285 5.82997C166.738 6.11355 167.108 6.51901 167.397 7.04637C167.686 7.56875 167.83 8.24785 167.83 9.08366V16.6955H165.651V15.1284H165.561C165.417 15.4169 165.2 15.7005 164.912 15.9791C164.623 16.2577 164.253 16.489 163.8 16.6731C163.347 16.8572 162.805 16.9492 162.173 16.9492ZM162.658 15.1582C163.275 15.1582 163.802 15.0363 164.24 14.7925C164.683 14.5488 165.019 14.2304 165.248 13.8373C165.482 13.4393 165.598 13.014 165.598 12.5612V11.0836C165.519 11.1632 165.365 11.2379 165.136 11.3075C164.912 11.3722 164.656 11.4294 164.367 11.4792C164.079 11.5239 163.797 11.5662 163.524 11.606C163.25 11.6408 163.021 11.6707 162.837 11.6956C162.404 11.7503 162.009 11.8423 161.651 11.9717C161.298 12.101 161.014 12.2876 160.8 12.5314C160.591 12.7702 160.487 13.0886 160.487 13.4866C160.487 14.0388 160.691 14.4567 161.099 14.7403C161.506 15.0189 162.026 15.1582 162.658 15.1582Z" fill="url(#paint4_linear_1113_15881)"/>
<path d="M169.751 20.994V5.23296H171.93V7.09115H172.117C172.246 6.85234 172.433 6.57623 172.676 6.2628C172.92 5.94937 173.258 5.67574 173.691 5.44191C174.124 5.20311 174.696 5.08371 175.408 5.08371C176.333 5.08371 177.159 5.31754 177.885 5.78519C178.612 6.25285 179.181 6.92697 179.594 7.80756C180.012 8.68814 180.221 9.74783 180.221 10.9866C180.221 12.2254 180.015 13.2876 179.602 14.1732C179.189 15.0537 178.622 15.7328 177.9 16.2104C177.179 16.6831 176.355 16.9194 175.43 16.9194C174.734 16.9194 174.164 16.8025 173.721 16.5686C173.283 16.3348 172.94 16.0612 172.691 15.7478C172.443 15.4343 172.251 15.1557 172.117 14.9119H171.982V20.994H169.751ZM171.938 10.9642C171.938 11.7702 172.054 12.4767 172.288 13.0836C172.522 13.6906 172.86 14.1657 173.303 14.509C173.746 14.8473 174.288 15.0164 174.93 15.0164C175.597 15.0164 176.154 14.8398 176.602 14.4866C177.049 14.1284 177.388 13.6433 177.617 13.0314C177.85 12.4194 177.967 11.7304 177.967 10.9642C177.967 10.208 177.853 9.52893 177.624 8.92695C177.4 8.32496 177.062 7.84984 176.609 7.50159C176.161 7.15333 175.602 6.97921 174.93 6.97921C174.283 6.97921 173.736 7.14587 173.288 7.4792C172.846 7.81253 172.51 8.2777 172.281 8.87471C172.052 9.47172 171.938 10.1682 171.938 10.9642Z" fill="url(#paint5_linear_1113_15881)"/>
<path d="M181.67 20.994V5.23296H183.849V7.09115H184.036C184.165 6.85234 184.352 6.57623 184.596 6.2628C184.839 5.94937 185.178 5.67574 185.611 5.44191C186.043 5.20311 186.616 5.08371 187.327 5.08371C188.252 5.08371 189.078 5.31754 189.805 5.78519C190.531 6.25285 191.101 6.92697 191.513 7.80756C191.931 8.68814 192.14 9.74783 192.14 10.9866C192.14 12.2254 191.934 13.2876 191.521 14.1732C191.108 15.0537 190.541 15.7328 189.819 16.2104C189.098 16.6831 188.275 16.9194 187.349 16.9194C186.653 16.9194 186.083 16.8025 185.64 16.5686C185.203 16.3348 184.859 16.0612 184.611 15.7478C184.362 15.4343 184.17 15.1557 184.036 14.9119H183.902V20.994H181.67ZM183.857 10.9642C183.857 11.7702 183.974 12.4767 184.208 13.0836C184.441 13.6906 184.78 14.1657 185.222 14.509C185.665 14.8473 186.208 15.0164 186.849 15.0164C187.516 15.0164 188.073 14.8398 188.521 14.4866C188.969 14.1284 189.307 13.6433 189.536 13.0314C189.77 12.4194 189.887 11.7304 189.887 10.9642C189.887 10.208 189.772 9.52893 189.543 8.92695C189.319 8.32496 188.981 7.84984 188.528 7.50159C188.081 7.15333 187.521 6.97921 186.849 6.97921C186.203 6.97921 185.655 7.14587 185.208 7.4792C184.765 7.81253 184.429 8.2777 184.2 8.87471C183.971 9.47172 183.857 10.1682 183.857 10.9642Z" fill="url(#paint6_linear_1113_15881)"/>
<path d="M198.53 16.9269C197.4 16.9269 196.428 16.6856 195.612 16.203C194.801 15.7154 194.174 15.0313 193.731 14.1508C193.294 13.2652 193.075 12.2279 193.075 11.0389C193.075 9.86474 193.294 8.82993 193.731 7.93442C194.174 7.03891 194.791 6.33991 195.582 5.83743C196.378 5.33495 197.308 5.08371 198.373 5.08371C199.02 5.08371 199.647 5.19067 200.254 5.4046C200.861 5.61853 201.405 5.95434 201.888 6.41205C202.371 6.86976 202.751 7.46428 203.03 8.19561C203.308 8.92197 203.448 9.80504 203.448 10.8448V11.6359H194.336V9.96425H201.261C201.261 9.37719 201.142 8.85729 200.903 8.40456C200.664 7.94686 200.328 7.58617 199.895 7.32249C199.468 7.05881 198.965 6.92697 198.388 6.92697C197.761 6.92697 197.214 7.0812 196.746 7.38965C196.284 7.69313 195.925 8.09113 195.672 8.58367C195.423 9.07122 195.298 9.60107 195.298 10.1732V11.4792C195.298 12.2453 195.433 12.897 195.701 13.4344C195.975 13.9717 196.356 14.3821 196.843 14.6657C197.331 14.9443 197.9 15.0836 198.552 15.0836C198.975 15.0836 199.361 15.0239 199.709 14.9045C200.057 14.7801 200.358 14.596 200.612 14.3523C200.866 14.1085 201.06 13.8075 201.194 13.4493L203.306 13.8299C203.137 14.4518 202.833 14.9965 202.395 15.4642C201.963 15.9269 201.418 16.2876 200.761 16.5463C200.109 16.8 199.366 16.9269 198.53 16.9269Z" fill="url(#paint7_linear_1113_15881)"/>
<path d="M209.164 16.9194C208.238 16.9194 207.412 16.6831 206.686 16.2104C205.965 15.7328 205.397 15.0537 204.985 14.1732C204.577 13.2876 204.373 12.2254 204.373 10.9866C204.373 9.74783 204.579 8.68814 204.992 7.80756C205.41 6.92697 205.982 6.25285 206.708 5.78519C207.435 5.31754 208.258 5.08371 209.179 5.08371C209.89 5.08371 210.462 5.20311 210.895 5.44191C211.333 5.67574 211.671 5.94937 211.91 6.2628C212.154 6.57623 212.343 6.85234 212.477 7.09115H212.611V1.41211H214.843V16.6955H212.664V14.9119H212.477C212.343 15.1557 212.149 15.4343 211.895 15.7478C211.646 16.0612 211.303 16.3348 210.865 16.5686C210.427 16.8025 209.86 16.9194 209.164 16.9194ZM209.656 15.0164C210.298 15.0164 210.84 14.8473 211.283 14.509C211.731 14.1657 212.069 13.6906 212.298 13.0836C212.532 12.4767 212.649 11.7702 212.649 10.9642C212.649 10.1682 212.534 9.47172 212.305 8.87471C212.077 8.2777 211.741 7.81253 211.298 7.4792C210.855 7.14587 210.308 6.97921 209.656 6.97921C208.985 6.97921 208.425 7.15333 207.977 7.50159C207.529 7.84984 207.191 8.32496 206.962 8.92695C206.738 9.52893 206.626 10.208 206.626 10.9642C206.626 11.7304 206.741 12.4194 206.97 13.0314C207.198 13.6433 207.537 14.1284 207.985 14.4866C208.437 14.8398 208.994 15.0164 209.656 15.0164Z" fill="url(#paint8_linear_1113_15881)"/>
<defs>
<linearGradient id="paint0_linear_1113_15881" x1="109.862" y1="11.203" x2="214.843" y2="11.203" gradientUnits="userSpaceOnUse">
<stop stop-color="#FD5243"/>
<stop offset="0.333333" stop-color="#E73D8D"/>
<stop offset="0.666667" stop-color="#B96ED0"/>
<stop offset="1" stop-color="#783AFB"/>
</linearGradient>
<linearGradient id="paint1_linear_1113_15881" x1="109.862" y1="11.203" x2="214.843" y2="11.203" gradientUnits="userSpaceOnUse">
<stop stop-color="#FD5243"/>
<stop offset="0.333333" stop-color="#E73D8D"/>
<stop offset="0.666667" stop-color="#B96ED0"/>
<stop offset="1" stop-color="#783AFB"/>
</linearGradient>
<linearGradient id="paint2_linear_1113_15881" x1="109.862" y1="11.203" x2="214.843" y2="11.203" gradientUnits="userSpaceOnUse">
<stop stop-color="#FD5243"/>
<stop offset="0.333333" stop-color="#E73D8D"/>
<stop offset="0.666667" stop-color="#B96ED0"/>
<stop offset="1" stop-color="#783AFB"/>
</linearGradient>
<linearGradient id="paint3_linear_1113_15881" x1="109.862" y1="11.203" x2="214.843" y2="11.203" gradientUnits="userSpaceOnUse">
<stop stop-color="#FD5243"/>
<stop offset="0.333333" stop-color="#E73D8D"/>
<stop offset="0.666667" stop-color="#B96ED0"/>
<stop offset="1" stop-color="#783AFB"/>
</linearGradient>
<linearGradient id="paint4_linear_1113_15881" x1="109.862" y1="11.203" x2="214.843" y2="11.203" gradientUnits="userSpaceOnUse">
<stop stop-color="#FD5243"/>
<stop offset="0.333333" stop-color="#E73D8D"/>
<stop offset="0.666667" stop-color="#B96ED0"/>
<stop offset="1" stop-color="#783AFB"/>
</linearGradient>
<linearGradient id="paint5_linear_1113_15881" x1="109.862" y1="11.203" x2="214.843" y2="11.203" gradientUnits="userSpaceOnUse">
<stop stop-color="#FD5243"/>
<stop offset="0.333333" stop-color="#E73D8D"/>
<stop offset="0.666667" stop-color="#B96ED0"/>
<stop offset="1" stop-color="#783AFB"/>
</linearGradient>
<linearGradient id="paint6_linear_1113_15881" x1="109.862" y1="11.203" x2="214.843" y2="11.203" gradientUnits="userSpaceOnUse">
<stop stop-color="#FD5243"/>
<stop offset="0.333333" stop-color="#E73D8D"/>
<stop offset="0.666667" stop-color="#B96ED0"/>
<stop offset="1" stop-color="#783AFB"/>
</linearGradient>
<linearGradient id="paint7_linear_1113_15881" x1="109.862" y1="11.203" x2="214.843" y2="11.203" gradientUnits="userSpaceOnUse">
<stop stop-color="#FD5243"/>
<stop offset="0.333333" stop-color="#E73D8D"/>
<stop offset="0.666667" stop-color="#B96ED0"/>
<stop offset="1" stop-color="#783AFB"/>
</linearGradient>
<linearGradient id="paint8_linear_1113_15881" x1="109.862" y1="11.203" x2="214.843" y2="11.203" gradientUnits="userSpaceOnUse">
<stop stop-color="#FD5243"/>
<stop offset="0.333333" stop-color="#E73D8D"/>
<stop offset="0.666667" stop-color="#B96ED0"/>
<stop offset="1" stop-color="#783AFB"/>
</linearGradient>
</defs>
</svg>
